<?xml version="1.0" encoding="UTF-8" standalone="no"?>
<!DOCTYPE svg PUBLIC "-//W3C//DTD SVG 1.1//EN" "http://www.w3.org/Graphics/SVG/1.1/DTD/svg11.dtd">
<svg width="100%" height="100%" viewBox="0 0 48 48" version="1.1" xmlns="http://www.w3.org/2000/svg" xmlns:xlink="http://www.w3.org/1999/xlink" xml:space="preserve" xmlns:serif="http://www.serif.com/" style="fill-rule:evenodd;clip-rule:evenodd;stroke-linejoin:round;stroke-miterlimit:2;">
    <g transform="matrix(1,0,0,1,3.43547e-12,1.3201)">
        <path d="M10.532,20.132L21.637,26.087C23.113,26.878 24.887,26.878 26.363,26.087L37.468,20.132L40.012,21.569C40.488,21.838 40.78,22.345 40.774,22.891C40.768,23.438 40.465,23.939 39.983,24.197L26.363,31.499C24.887,32.291 23.113,32.291 21.637,31.499L8.017,24.197C7.535,23.939 7.232,23.438 7.226,22.891C7.22,22.345 7.512,21.838 7.988,21.569L10.532,20.132Z" style="fill:rgb(28,25,23);"/>
    </g>
    <g transform="matrix(1,0,0,1,1.03135e-11,10.733)">
        <path d="M10.532,20.132L21.637,26.087C23.113,26.878 24.887,26.878 26.363,26.087L37.468,20.132L40.012,21.569C40.488,21.838 40.78,22.345 40.774,22.891C40.768,23.438 40.465,23.939 39.983,24.197L26.363,31.499C24.887,32.291 23.113,32.291 21.637,31.499L8.017,24.197C7.535,23.939 7.232,23.438 7.226,22.891C7.22,22.345 7.512,21.838 7.988,21.569L10.532,20.132Z" style="fill:rgb(28,25,23);"/>
    </g>
    <g transform="matrix(0.707107,0.707107,-0.707107,0.707107,21.8787,-12.7608)">
        <path d="M33.212,7.609C33.37,7.085 33.231,6.517 32.849,6.126C32.466,5.735 31.901,5.584 31.374,5.73C27.504,6.806 20.302,8.809 16.378,9.9C14.689,10.37 13.37,11.689 12.9,13.378C11.809,17.302 9.806,24.504 8.73,28.374C8.584,28.901 8.735,29.466 9.126,29.849C9.517,30.231 10.085,30.37 10.609,30.212C14.451,29.052 21.586,26.898 25.404,25.745C27.007,25.261 28.261,24.007 28.745,22.404C29.898,18.586 32.052,11.451 33.212,7.609Z" style="fill:rgb(28,25,23);"/>
    </g>
</svg>
